<?xml version="1.0" standalone="no"?>
<!DOCTYPE svg PUBLIC "-//W3C//DTD SVG 20010904//EN"
 "http://www.w3.org/TR/2001/REC-SVG-20010904/DTD/svg10.dtd">
<svg version="1.0" xmlns="http://www.w3.org/2000/svg"
 width="1251.000000pt" height="1280.000000pt" viewBox="0 0 1251.000000 1280.000000"
 preserveAspectRatio="xMidYMid meet">
<metadata>
Created by potrace 1.15, written by Peter Selinger 2001-2017
</metadata>
<g transform="translate(0.000000,1280.000000) scale(0.100000,-0.100000)"
fill="#000000" stroke="none">
<path d="M4815 12789 c-945 -72 -1759 -449 -2400 -1110 -607 -626 -1144 -1583
-1535 -2734 -455 -1337 -739 -2990 -840 -4885 -47 -891 -51 -1977 -9 -2815 17
-351 76 -1226 83 -1232 12 -13 1722 -8 1976 5 135 7 333 17 440 23 2260 117
4418 515 6026 1109 1046 387 1955 889 2599 1435 1275 1081 1670 2695 1095
4470 -112 345 -200 557 -385 930 -153 308 -270 515 -446 788 -694 1076 -1688
2082 -2774 2806 -358 239 -645 404 -999 577 -707 344 -1374 545 -2061 619
-171 19 -607 27 -770 14z m550 -1619 c1554 -131 3495 -1467 4640 -3195 741
-1117 1032 -2206 814 -3052 -72 -283 -205 -546 -392 -778 -71 -88 -246 -270
-253 -263 -2 3 2 27 10 54 89 306 118 771 72 1156 -82 682 -346 1386 -783
2091 -735 1185 -1913 2254 -3126 2837 -541 260 -1032 409 -1562 476 -177 22
-607 25 -770 6 -150 -19 -380 -65 -497 -101 -87 -26 -96 -27 -88 -11 19 35
225 244 315 318 322 269 723 428 1170 465 93 8 339 6 450 -3z m-784 -1501
c1200 -95 2641 -972 3684 -2244 797 -970 1234 -2058 1166 -2899 -30 -367 -135
-683 -318 -961 -82 -124 -147 -203 -266 -324 -124 -125 -437 -381 -437 -356 0
3 14 33 31 67 104 205 185 487 219 758 93 747 -168 1646 -727 2500 -499 762
-1229 1477 -1990 1951 -1134 706 -2239 899 -3120 545 -115 -46 -213 -93 -275
-132 -21 -13 -40 -24 -43 -24 -8 0 109 172 190 280 214 282 438 479 704 618
354 185 737 257 1182 221z m-477 -1529 c795 -118 1707 -632 2472 -1395 760
-757 1246 -1612 1365 -2398 28 -187 28 -468 0 -632 -98 -561 -410 -961 -1058
-1353 l-132 -80 -228 -56 c-308 -75 -872 -196 -914 -196 -3 0 34 39 83 88 203
198 375 437 508 707 139 280 220 552 255 852 17 148 20 441 5 581 -127 1167
-1012 2110 -2165 2306 -165 28 -334 39 -525 33 -248 -8 -426 -36 -652 -103
-498 -145 -932 -432 -1281 -844 l-38 -45 6 55 c36 291 121 822 176 1098 29
146 33 158 96 270 88 159 233 376 330 497 300 372 677 581 1149 635 116 13
389 3 548 -20z"/>
</g>
</svg>
